# xmcd
#
# Track frame offsets:
#	150
#	23848
#	42962
#	65395
#	82506
#	103368
#	119835
#	135811
#	158652
#	180113
#	197653
#	215611
#	233050
#
# Disc length: 3310 seconds
#
# Revision: 1
# Processed by: cddbd v1.5.1PL2 Copyright (c) Steve Scherf et al.
# Submitted via: audiograbber 1.83.01
#
DISCID=a00cec0d
DTITLE=Deutschland sucht den Superstar - Love Songs
DYEAR=2006
DGENRE=
TTITLE0=01 Jessie - Tobias Regner
TTITLE1=02 Hero - Vanessa Jean Dedmon
TTITLE2=03 Se Bastasse Una Canzone - Nevio Passaro
TTITLE3=04 The First Cut Is The Deepest - Carolina Escolano-Fernandez
TTITLE4=05 Love's Divine - Mike Leon Grosch
TTITLE5=06 Eternal Flame - Lena Hanenberg
TTITLE6=07 Now And Forever - Daniel Muñoz-Lopez
TTITLE7=08 Nothing Compares 2 U - Dascha Semcov
TTITLE8=09 I Believe I Can Fly - Stephan Darnstaedt
TTITLE9=10 Wish You Were Here - Anna-Maria Zimmermann
TTITLE10=11 Back For Good - Deutschland sucht den Superstar
TTITLE11=12 2 Become 1 - Deutschland sucht den Superstar
TTITLE12=13 2 Become 1-Back For Good - Deutschland sucht den Superstar
EXTD=
EXTT0=
EXTT1=
EXTT2=
EXTT3=
EXTT4=
EXTT5=
EXTT6=
EXTT7=
EXTT8=
EXTT9=
EXTT10=
EXTT11=
EXTT12=
PLAYORDER=
